<svg width="14" height="18" viewBox="0 0 14 18" fill="none" xmlns="http://www.w3.org/2000/svg">
<path d="M5.61084 12.8792C5.61084 12.1565 6.1967 11.5707 6.91939 11.5707C7.64208 11.5707 8.22793 12.1565 8.22793 12.8792C8.22793 13.6019 7.64208 14.1877 6.91939 14.1877C6.1967 14.1877 5.61084 13.6019 5.61084 12.8792Z" fill="#C2C3CB"/>
<path fill-rule="evenodd" clip-rule="evenodd" d="M3.09987 8.16595L2.82469 5.68933C2.78941 5.37181 2.78941 5.05135 2.82469 4.73383L2.84455 4.55509C3.05522 2.6591 4.54574 1.15893 6.44033 0.936041C6.75859 0.898598 7.08014 0.898598 7.3984 0.936041C9.29299 1.15893 10.7835 2.6591 10.9942 4.55509L11.014 4.73383C11.0493 5.05135 11.0493 5.37181 11.014 5.68933L10.7389 8.16594L11.3378 8.21376C12.2824 8.28916 13.0536 8.99918 13.2067 9.93427C13.5261 11.8846 13.5261 13.8738 13.2067 15.8241C13.0536 16.7592 12.2824 17.4692 11.3378 17.5446L10.0327 17.6488C7.96046 17.8143 5.87836 17.8143 3.80616 17.6488L2.501 17.5446C1.55646 17.4692 0.785202 16.7592 0.632089 15.8241C0.312741 13.8738 0.312741 11.8846 0.632089 9.93427C0.785202 8.99918 1.55646 8.28916 2.501 8.21376L3.09987 8.16595ZM6.59322 2.23562C6.8099 2.21013 7.02883 2.21013 7.24551 2.23562C8.53541 2.38738 9.55021 3.40874 9.69363 4.69959L9.71349 4.87834C9.7381 5.09982 9.7381 5.32334 9.71349 5.54482L9.43332 8.06635C7.75909 7.95854 6.07964 7.95854 4.40541 8.06635L4.12524 5.54482C4.10063 5.32334 4.10063 5.09982 4.12524 4.87834L4.1451 4.69959C4.28852 3.40874 5.30332 2.38738 6.59322 2.23562ZM9.92852 9.41396C7.92563 9.25406 5.91319 9.25406 3.9103 9.41396L2.60513 9.51815C2.26061 9.54566 1.97929 9.80464 1.92344 10.1457C1.62702 11.956 1.62702 13.8024 1.92344 15.6127C1.97929 15.9538 2.26061 16.2127 2.60513 16.2402L3.9103 16.3444C5.91318 16.5043 7.92563 16.5043 9.92852 16.3444L11.2337 16.2402C11.5782 16.2127 11.8595 15.9538 11.9154 15.6127C12.2118 13.8024 12.2118 11.956 11.9154 10.1457C11.8595 9.80464 11.5782 9.54566 11.2337 9.51815L9.92852 9.41396Z" fill="#C2C3CB"/>
</svg>
